<svg width="1000" height="600" xmlns="http://www.w3.org/2000/svg" version="1.1">

 <g>
  <title>Layer 1</title>
  <g stroke="null" id="svg_2">
   <circle stroke="null" id="svg_3" transform="matrix(0.73692 0 0 0.778621 -150.007 -11.9241)" fill="#fad744" cy="400.61109" cx="383.43487" r="166.66666"/>
   <path stroke="null" id="svg_4" fill="#2b3252" d="m93.17012,355.24848l11.11251,0l-11.41696,-35.72957l-31.01064,0l-12.04762,35.72957l11.74316,0l0,3.14788l-23.96475,0l0,-3.14788l7.37209,0l39.92675,-113.64531l12.83049,0l39.44833,113.64531l7.21987,0l0,3.14788l-51.21324,0l0,-3.14788zm-1.56576,-39.35997l-13.61337,-43.35801l-14.72245,43.35801l28.33582,0zm77.35265,-70.65494l21.28992,51.79064l22.24677,-51.79064l-15.83152,0l0,-2.64238l30.85842,0l0,2.64238l-10.32963,0l-23.6603,55.2602l0,54.75471l9.5685,0l0,3.14788l-49.64748,0l0,-3.14788l9.54675,0l0,-51.60683l-26.61784,-58.40808l-7.35035,0l0,-2.64238l50.10416,0l0,2.64238l-10.17741,0z"/>
   <path stroke="null" id="svg_5" fill="#fad744" d="m345.31108,249.7626l18.24172,56.62352l9.27623,-34.04963l-6.71245,-22.57389l-6.37061,0l0,-2.24918l34.68101,0l0,2.24918l-6.60369,0l16.67237,55.90116l13.42491,-55.90116l-11.29619,0l0,-2.24918l22.37484,0l0,2.24918l-7.38059,0l-20.58797,81.67643l-9.95991,0l-16.5636,-53.42214l-14.54365,53.42214l-9.72685,0l-28.18609,-81.67643l-5.26741,0l0,-2.24918l36.35913,0l0,2.24918l-7.83119,0zm105.95422,81.67643q-14.43488,0 -21.66009,-7.86392q-7.20968,-7.86392 -7.20968,-21.86795q0,-14.00402 8.11088,-21.4575q8.11088,-7.43707 20.63458,-7.43707l0,0q25.40478,0 24.3948,26.94091l0,0l-31.54232,0l0,4.61328q0,11.59067 2.79685,17.50092q2.79685,5.91026 9.72685,5.91026l0,0q12.9743,0 16.99867,-14.66072l0,0l2.01995,0.36118q-2.12872,8.5042 -7.66027,13.2324q-5.5471,4.7282 -16.61022,4.7282l0,0zm-7.16306,-39.82854l0,5.77891l11.51372,0l0,-5.77891q0,-9.58775 -1.05659,-13.06823q-1.05659,-3.48048 -4.25744,-3.48048q-3.18531,0 -4.6925,3.71033q-1.5072,3.72675 -1.5072,12.83839l0,0zm62.30773,10.8683l0,0l3.24747,0l0,-9.09522q0,-11.22949 -1.1809,-15.07115q-1.16536,-3.84167 -4.52158,-3.84167l0,0q-2.01995,0 -3.63591,1.11639q-1.6315,1.11638 -1.6315,3.07005q0,1.95366 0.68367,3.95658l0,0l2.79686,0q0.88567,2.49544 0.88567,5.97593q0,3.48048 -2.79685,6.02517q-2.79685,2.5447 -7.03876,2.5447l0,0q-9.63361,0 -9.63361,-9.81759l0,0q0,-14.52938 23.38482,-14.52938l0,0q13.31614,0 18.41263,4.77746q5.08096,4.79387 5.08096,17.56659l0,0l0,23.98578q0,6.15651 3.24746,6.15651l0,0q3.80683,0 4.47497,-12.18169l0,0l1.67811,0.11492q-0.4506,10.40862 -3.69806,14.29954q-3.23192,3.90733 -10.62806,3.90733l0,0q-13.42491,0 -15.42932,-8.75046l0,0q-1.46058,4.49836 -4.36621,6.6162q-2.90562,2.13426 -8.49934,2.13426l0,0q-16.5636,0 -16.5636,-14.29953l0,0q0,-8.38928 6.324,-11.525q6.324,-3.13572 19.40707,-3.13572zm-4.47497,14.54579q0,6.1401 0.62153,7.91318q0.60598,1.77308 2.34625,1.77308q1.74027,0 3.24746,-3.02079q1.5072,-3.00438 1.5072,-8.32361l0,0l0,-10.99965l-0.7769,0q-6.94553,0 -6.94553,10.75338l0,0l0,1.90441zm42.96281,-3.67749l0,0l0,-37.23461l-6.15308,0l0,-2.11784l6.15308,0l0,-15.25174l20.80551,-5.43415l0,20.68589l14.54365,0l0,2.11784l-14.54365,0l0,39.84497q0,5.54908 1.07212,8.15944q1.0566,2.59395 4.41282,2.59395q3.35623,0 5.8734,-3.54615q2.51717,-3.54615 3.29407,-9.68625l0,0l1.91119,0.22984q-0.90121,8.15944 -4.92557,12.93689q-4.02436,4.79387 -13.31614,4.79387q-9.27624,0 -14.20181,-3.90733q-4.92558,-3.89092 -4.92558,-14.18461zm38.48785,-69.60967l0,-2.13426l26.95858,0l0,43.25979q1.78688,-5.43415 5.48495,-8.75047q3.68253,-3.29989 11.18742,-3.29989l0,0q17.34051,0 17.34051,19.73368l0,0l0,35.57645l6.26185,0l0,2.13426l-31.66663,0l0,-2.13426l4.59928,0l0,-38.41666q0,-7.09231 -0.90121,-9.16089q-0.90121,-2.06859 -3.24747,-2.06859l0,0q-3.57376,0 -6.324,4.97446q-2.7347,4.95804 -2.7347,12.05035l0,0l0,32.62133l4.81681,0l0,2.13426l-31.77539,0l0,-2.13426l6.15308,0l0,-84.3853l-6.15308,0zm98.34056,87.70161q-14.43489,0 -21.6601,-7.86392q-7.20968,-7.86392 -7.20968,-21.86795q0,-14.00402 8.11088,-21.4575q8.11088,-7.43707 20.63459,-7.43707l0,0q25.40477,0 24.39479,26.94091l0,0l-31.54232,0l0,4.61328q0,11.59067 2.79685,17.50092q2.79686,5.91026 9.72685,5.91026l0,0q12.9743,0 16.99867,-14.66072l0,0l2.01995,0.36118q-2.12872,8.5042 -7.66027,13.2324q-5.5471,4.7282 -16.61021,4.7282l0,0zm-7.16306,-39.82854l0,5.77891l11.51372,0l0,-5.77891q0,-9.58775 -1.05659,-13.06823q-1.0566,-3.48048 -4.25744,-3.48048q-3.18531,0 -4.69251,3.71033q-1.50719,3.72675 -1.50719,12.83839l0,0zm72.82702,-14.31595l0,0q-4.13313,0 -7.27183,5.68041q-3.1387,5.68041 -3.1387,13.47867l0,0l0,31.66911l7.95551,0l0,2.13426l-34.91408,0l0,-2.13426l6.15308,0l0,-52.01025l-6.15308,0l0,-2.11784l26.95858,0l0,11.34441q1.46058,-6.02518 5.59371,-9.27582q4.14867,-3.25064 9.40055,-3.25064q5.26741,0 8.56148,3.13572q3.29408,3.1193 3.29408,8.86538q0,5.72966 -2.45502,8.79971q-2.45502,3.07005 -7.55151,3.07005q-5.09649,0 -7.48936,-3.54615q-2.4084,-3.54615 -0.62152,-9.80118l0,0l4.02436,0q2.79685,-6.04159 -2.34625,-6.04159zm77.41075,50.71327l7.95551,0l-8.17304,-25.52902l-22.15731,0l-8.6081,25.52902l8.39057,0l0,2.24918l-17.12298,0l0,-2.24918l5.26741,0l28.52793,-81.20033l9.16747,0l28.20163,81.20033l5.1431,0l0,2.24918l-36.5922,0l0,-2.24918zm-1.11874,-28.12296l-9.72684,-30.97958l-10.51929,30.97958l20.24613,0zm79.21317,-1.42831q0,-12.16527 -1.11874,-16.36812q-1.11875,-4.20285 -4.36621,-4.20285q-3.24746,0 -5.81125,4.43269q-2.57932,4.43269 -2.57932,11.88618l0,0l0,21.6381q0,5.07297 1.91119,8.61912q1.89564,3.54615 5.59371,3.54615q3.68252,0 5.03433,-5.2043q1.33628,-5.18789 1.33628,-18.19046l0,0l0,-6.15651zm-40.61656,-24.46189l26.52352,0l0,9.34149q4.36621,-10.52353 15.42932,-10.52353l0,0q9.63361,0 14.94764,7.32215q5.31403,7.33857 5.31403,22.22912q0,14.89056 -5.76464,21.98286q-5.76463,7.09231 -17.29389,7.09231l0,0q-5.36064,0 -8.04873,-1.41189q-2.68809,-1.42831 -4.36621,-4.38344l0,0l0,30.6184l14.43489,0l0,2.13426l-41.39347,0l0,-2.13426l6.15308,0l0,-80.14962l-5.93555,0l0,-2.11784zm106.40483,24.46189q0,-12.16527 -1.11874,-16.36812q-1.11875,-4.20285 -4.36621,-4.20285q-3.24746,0 -5.82678,4.43269q-2.56379,4.43269 -2.56379,11.88618l0,0l0,21.6381q0,5.07297 1.89564,8.61912q1.91119,3.54615 5.59371,3.54615q3.69806,0 5.03434,-5.2043q1.35181,-5.18789 1.35181,-18.19046l0,0l0,-6.15651zm-40.61656,-24.46189l26.50798,0l0,9.34149q4.36621,-10.52353 15.44486,-10.52353l0,0q9.61808,0 14.9321,7.32215q5.31402,7.33857 5.31402,22.22912q0,14.89056 -5.76463,21.98286q-5.74909,7.09231 -17.27836,7.09231l0,0q-5.37618,0 -8.04873,-1.41189q-2.68809,-1.42831 -4.36621,-4.38344l0,0l0,30.6184l14.43489,0l0,2.13426l-41.39347,0l0,-2.13426l6.15308,0l0,-80.14962l-5.93555,0l0,-2.11784z"/>
  </g>
 </g>
</svg>